<svg xmlns="http://www.w3.org/2000/svg" xmlns:xlink="http://www.w3.org/1999/xlink" width="500" zoomAndPan="magnify" viewBox="0 0 375 374.999991" height="500" preserveAspectRatio="xMidYMid meet" version="1.0"><rect x="-37.5" width="450" fill="#ffffff" y="-37.499999" height="449.999989" fill-opacity="1"/><rect x="-37.5" width="450" fill="#000000" y="-37.499999" height="449.999989" fill-opacity="1"/><path fill="#1f83bd" d="M 99.074219 220.957031 C 99.074219 220.957031 101.699219 180.863281 86.710938 148.640625 L 181.890625 148.765625 C 191.554688 226.105469 158.132812 282.882812 92.707031 324.382812 C 171.132812 290.035156 207.574219 228.082031 195.757812 134.402344 L 63.476562 134.402344 L 76.59375 157.261719 L 31.25 157.261719 C 31.25 157.261719 72.09375 195.484375 82.210938 217.96875 C 82.210938 217.96875 78.089844 190.984375 63.101562 174.121094 L 84.832031 174.121094 C 84.832031 174.117188 96.449219 199.597656 99.074219 220.957031 Z M 99.074219 220.957031 " fill-opacity="1" fill-rule="nonzero"/><path fill="#1f83bd" d="M 137.726562 180.714844 L 136.425781 180.714844 C 135.523438 180.714844 134.785156 180.8125 134.207031 181.003906 C 133.628906 181.195312 133.195312 181.4375 132.90625 181.730469 C 132.554688 182.082031 132.320312 182.554688 132.210938 183.152344 C 132.097656 183.746094 132.039062 184.285156 132.039062 184.769531 C 132.039062 185.382812 132.128906 185.886719 132.304688 186.289062 C 132.476562 186.691406 132.699219 187.023438 132.957031 187.277344 C 133.214844 187.539062 133.488281 187.730469 133.773438 187.859375 C 134.066406 187.988281 134.320312 188.082031 134.546875 188.148438 L 137.734375 189.164062 L 137.734375 180.714844 Z M 137.726562 180.714844 " fill-opacity="1" fill-rule="nonzero"/><path fill="#1f83bd" d="M 144.582031 204.195312 C 145.355469 204.082031 145.953125 203.851562 146.367188 203.496094 C 146.65625 203.238281 146.898438 202.878906 147.089844 202.410156 C 147.285156 201.945312 147.382812 201.371094 147.382812 200.699219 C 147.382812 199.769531 147.160156 198.886719 146.707031 198.070312 C 146.253906 197.25 145.320312 196.613281 143.90625 196.164062 L 141.492188 195.390625 L 141.492188 204.363281 L 142.652344 204.363281 C 143.164062 204.363281 143.808594 204.3125 144.582031 204.195312 Z M 144.582031 204.195312 " fill-opacity="1" fill-rule="nonzero"/><path fill="#1f83bd" d="M 167.648438 192.480469 C 167.648438 176.957031 155.066406 164.375 139.542969 164.375 C 124.023438 164.375 111.4375 176.957031 111.4375 192.480469 C 111.4375 208 124.023438 220.582031 139.542969 220.582031 C 155.066406 220.582031 167.648438 208 167.648438 192.480469 Z M 126.722656 209.429688 L 126.722656 204.363281 L 137.726562 204.363281 L 137.726562 194.183594 L 131.261719 192.109375 C 130.359375 191.816406 129.523438 191.472656 128.753906 191.070312 C 127.980469 190.667969 127.273438 189.933594 126.628906 188.875 C 126.117188 188.007812 125.792969 187.113281 125.664062 186.195312 C 125.535156 185.28125 125.472656 184.433594 125.472656 183.660156 C 125.472656 182.664062 125.5625 181.65625 125.734375 180.640625 C 125.914062 179.628906 126.351562 178.71875 127.0625 177.914062 C 127.515625 177.402344 128.019531 176.988281 128.582031 176.683594 C 129.148438 176.382812 129.722656 176.152344 130.320312 176.011719 C 130.914062 175.867188 131.507812 175.769531 132.101562 175.71875 C 132.699219 175.671875 133.269531 175.648438 133.816406 175.648438 L 137.722656 175.648438 L 137.722656 172.367188 L 141.488281 172.367188 L 141.488281 175.648438 L 151.816406 175.648438 L 151.816406 180.714844 L 141.488281 180.714844 L 141.488281 190.367188 L 147.1875 192.203125 C 148.054688 192.492188 148.949219 192.828125 149.863281 193.214844 C 150.78125 193.601562 151.644531 194.324219 152.445312 195.390625 C 153.152344 196.324219 153.582031 197.25 153.722656 198.167969 C 153.867188 199.082031 153.941406 200.089844 153.941406 201.179688 C 153.941406 201.792969 153.925781 202.40625 153.894531 203.015625 C 153.863281 203.625 153.761719 204.222656 153.601562 204.796875 C 153.441406 205.375 153.207031 205.933594 152.90625 206.460938 C 152.601562 206.992188 152.171875 207.46875 151.625 207.882812 C 151.144531 208.269531 150.609375 208.566406 150.035156 208.777344 C 149.453125 208.988281 148.859375 209.140625 148.25 209.238281 C 147.636719 209.335938 147.023438 209.390625 146.417969 209.410156 C 145.804688 209.425781 145.226562 209.429688 144.675781 209.429688 L 141.492188 209.429688 L 141.492188 212.714844 L 137.726562 212.714844 L 137.726562 209.429688 Z M 126.722656 209.429688 " fill-opacity="1" fill-rule="nonzero"/><path fill="#1f83bd" d="M 162.339844 48.761719 L 166.992188 87.460938 L 105.460938 61.289062 C 105.78125 62.035156 119.234375 92.546875 129.179688 123.976562 L 143.332031 123.976562 C 142.648438 116.835938 141.3125 109.550781 138.984375 102.632812 L 168.480469 115.1875 C 168.480469 115.1875 168.566406 118.511719 168.496094 123.976562 L 181.855469 123.976562 C 184.523438 110.546875 186.183594 96.035156 185.691406 81.558594 L 314.8125 136.675781 C 286.996094 234.960938 222.554688 291.71875 129.832031 316.417969 C 117.914062 319.59375 105.535156 322.246094 92.699219 324.375 C 101.535156 324.273438 110.175781 323.863281 118.601562 323.144531 C 230.601562 313.652344 306.679688 250.121094 341.890625 125.117188 Z M 162.339844 48.761719 " fill-opacity="1" fill-rule="nonzero"/><path fill="#1f83bd" d="M 234.71875 153.960938 C 233.496094 153.4375 232.433594 153.144531 231.535156 153.070312 C 230.636719 152.996094 229.914062 153.078125 229.347656 153.308594 C 228.664062 153.582031 228.078125 154.09375 227.585938 154.839844 C 227.085938 155.578125 226.703125 156.289062 226.417969 156.941406 C 226.070312 157.773438 225.898438 158.515625 225.910156 159.167969 C 225.917969 159.8125 226.019531 160.390625 226.222656 160.890625 C 226.417969 161.382812 226.6875 161.8125 227.007812 162.152344 C 227.320312 162.492188 227.617188 162.777344 227.890625 162.996094 L 231.632812 166.21875 L 236.492188 154.707031 Z M 234.71875 153.960938 " fill-opacity="1" fill-rule="nonzero"/><path fill="#1f83bd" d="M 229.566406 189.765625 C 230.261719 190.058594 231.167969 190.351562 232.277344 190.644531 C 233.394531 190.941406 234.332031 190.96875 235.105469 190.722656 C 235.648438 190.542969 236.183594 190.1875 236.71875 189.660156 C 237.25 189.136719 237.699219 188.417969 238.089844 187.492188 C 238.628906 186.222656 238.828125 184.910156 238.683594 183.523438 C 238.542969 182.148438 237.640625 180.738281 235.984375 179.304688 L 233.152344 176.859375 L 227.980469 189.089844 Z M 229.566406 189.765625 " fill-opacity="1" fill-rule="nonzero"/><path fill="#1f83bd" d="M 207.417969 188.484375 C 206.945312 193.621094 206.292969 198.640625 205.445312 203.554688 C 208.546875 206.179688 212.078125 208.382812 216.007812 210.050781 C 237.074219 219.011719 261.398438 209.144531 270.332031 188.003906 C 279.25 166.859375 269.421875 142.460938 248.347656 133.496094 C 234.035156 127.40625 218.226562 130.023438 206.765625 138.945312 C 208.332031 153.503906 208.738281 167.386719 207.996094 180.59375 L 222.878906 186.921875 L 228.738281 173.046875 L 221.152344 166.488281 C 220.089844 165.574219 219.152344 164.617188 218.339844 163.628906 C 217.523438 162.636719 216.984375 161.222656 216.71875 159.402344 C 216.523438 157.925781 216.59375 156.523438 216.957031 155.199219 C 217.304688 153.882812 217.703125 152.691406 218.152344 151.640625 C 218.726562 150.285156 219.421875 148.96875 220.242188 147.691406 C 221.066406 146.410156 222.191406 145.429688 223.613281 144.746094 C 224.523438 144.296875 225.445312 144.03125 226.390625 143.9375 C 227.332031 143.855469 228.246094 143.871094 229.136719 144.023438 C 230.027344 144.167969 230.890625 144.382812 231.722656 144.660156 C 232.566406 144.933594 233.351562 145.234375 234.09375 145.550781 L 239.394531 147.804688 L 241.292969 143.339844 L 246.398438 145.507812 L 244.511719 149.980469 L 258.53125 155.9375 L 255.613281 162.839844 L 241.59375 156.882812 L 236.046875 170.023438 L 242.714844 175.808594 C 243.726562 176.707031 244.746094 177.683594 245.773438 178.738281 C 246.796875 179.796875 247.542969 181.277344 248.027344 183.191406 C 248.449219 184.867188 248.492188 186.375 248.167969 187.707031 C 247.835938 189.042969 247.355469 190.453125 246.71875 191.941406 C 246.371094 192.773438 246 193.601562 245.601562 194.414062 C 245.203125 195.230469 244.730469 195.976562 244.179688 196.679688 C 243.628906 197.371094 242.996094 197.992188 242.273438 198.542969 C 241.554688 199.082031 240.699219 199.492188 239.71875 199.738281 C 238.835938 199.980469 237.945312 200.085938 237.039062 200.039062 C 236.140625 199.980469 235.242188 199.851562 234.359375 199.632812 C 233.46875 199.40625 232.609375 199.132812 231.777344 198.800781 C 230.929688 198.472656 230.148438 198.148438 229.398438 197.835938 L 225.078125 196 L 223.179688 200.46875 L 218.074219 198.292969 L 219.960938 193.820312 Z M 207.417969 188.484375 " fill-opacity="1" fill-rule="nonzero"/></svg>